<?xml version="1.0" encoding="UTF-8"?>
<svg xmlns="http://www.w3.org/2000/svg" viewBox="0 0 360 360">
  <path 
    stroke-linecap="round" 
    stroke-linejoin="round" 
    d="M27 42v-15a1.5 1.5 0 0 1 1.5-1.5h6a1.5 1.5 0 0 1 1.5 1.5V42m-9 0H4.72m22.28 0H36m0 0h7.28m-2.78 0V18.698M7.5 42V18.698m0 0a6.002 6.002 0 0 0 7.5-1.23A5.986 5.986 0 0 0 19.5 18.75c1.792 0 3.4-.786 4.5-2.032a5.986 5.986 0 0 0 4.5 2.032c1.792 0 3.4-.786 4.5-2.032a6.002 6.002 0 0 0 7.5 1.23m-33 0a6.008 6.008 0 0 1-1.262-9.44l2.378-2.38A3 3 0 0 1 10.756 6h26.486a3 3 0 0 1 2.12.88l2.38 2.38a6 6 0 0 1-1.262 9.44M13.5 36h7.5a1.5 1.5 0 0 0 1.5-1.5V27a1.5 1.5 0 0 0-1.5-1.5h-7.5a1.5 1.5 0 0 0-1.5 1.5v7.5a1.5 1.5 0 0 0 1.5 1.5Z" 
    fill="none" 
    stroke="#ffffff" 
    stroke-width="2"
    transform="scale(8)"
  />
</svg>